<svg width="24" height="24" viewBox="0 0 24 24" fill="none" xmlns="http://www.w3.org/2000/svg">
<path d="M14.066 6.02832V8.24832H19.795C19.845 8.24765 19.8943 8.24932 19.943 8.25332L14.09 14.0053C14.074 13.9031 14.066 13.7998 14.066 13.6963V8.24732H11.713V13.6973C11.713 16.0193 13.648 17.9193 15.971 17.9193H21.646V15.6993H15.971C15.951 15.6993 15.9313 15.6983 15.912 15.6963L21.641 10.0673C21.645 10.122 21.647 10.1773 21.647 10.2333V15.6983H24V10.2333C24.0001 9.68107 23.8915 9.13421 23.6802 8.62398C23.4689 8.11375 23.1592 7.65014 22.7687 7.25964C22.3782 6.86915 21.9146 6.55941 21.4043 6.34814C20.8941 6.13686 20.3472 6.02819 19.795 6.02832H14.066ZM0 8.24532L8.28 17.5113C9.119 18.4513 10.676 17.8573 10.676 16.5973V8.24532H8.19V13.6853L3.33 8.24532H0Z" fill="black"/>
</svg>
